<svg xmlns="http://www.w3.org/2000/svg" viewBox="0 0 1600 900" preserveAspectRatio="xMidYMid slice">
  <defs>
    <linearGradient id="sky" x1="0" y1="0" x2="0" y2="1">
      <stop offset="0" stop-color="#2f405f"/>
      <stop offset=".48" stop-color="#8b6f58"/>
      <stop offset="1" stop-color="#1d1722"/>
    </linearGradient>
    <radialGradient id="sun" cx="50%" cy="42%" r="34%">
      <stop offset="0" stop-color="#ffe6a0" stop-opacity=".7"/>
      <stop offset=".35" stop-color="#d7a95f" stop-opacity=".24"/>
      <stop offset="1" stop-color="#d7a95f" stop-opacity="0"/>
    </radialGradient>
  </defs>
  <rect width="1600" height="900" fill="url(#sky)"/>
  <rect width="1600" height="900" fill="url(#sun)"/>
  <path d="M0 520 C260 420 390 430 620 455 C780 473 880 472 1040 442 C1240 405 1400 425 1600 360 L1600 900 L0 900Z" fill="#253042"/>
  <path d="M0 600 C260 515 450 545 650 560 C850 578 970 548 1120 505 C1320 448 1440 480 1600 430 L1600 900 L0 900Z" fill="#171d2b"/>
  <path d="M730 900 C750 760 770 630 795 505 C804 464 822 463 832 505 C862 635 902 765 960 900Z" fill="#6b573e"/>
  <path d="M786 505 C805 485 823 486 838 506 L1600 900 L960 900Z" fill="#3a3027" opacity=".92"/>
  <path d="M785 505 C802 487 821 487 837 506 L0 900 L730 900Z" fill="#8b724f" opacity=".86"/>
  <path d="M798 502 L820 900" stroke="#d0b06f" stroke-width="4" opacity=".26"/>
  <path d="M0 725 C260 670 460 690 620 720" stroke="#cba65d" stroke-width="5" opacity=".18" fill="none"/>
  <path d="M1600 710 C1340 654 1160 680 1015 720" stroke="#cba65d" stroke-width="5" opacity=".14" fill="none"/>
</svg>
