<?xml version="1.0" encoding="UTF-8"?>
<svg id="_レイヤー_2" data-name="レイヤー 2" xmlns="http://www.w3.org/2000/svg" viewBox="0 0 1757 56.66">
  <defs>
    <style>
      .cls-1 {
        fill: #fff;
      }
    </style>
  </defs>
  <g id="_戦闘" data-name="戦闘">
    <g>
      <path class="cls-1" d="M238.51,30.03c415.8-3.36,843.53-3.26,1259.38-.38,0,0,40.62.38,40.62.38,0,0-40.63.38-40.62.38-415.86,2.88-843.57,2.98-1259.38-.38h0Z"/>
      <g id="_レイヤー_1-2" data-name=" レイヤー 1-2">
        <g>
          <rect class="cls-1" x="20.46" y="20.68" width="15.8" height="15.8" transform="translate(-11.9 28.42) rotate(-45)"/>
          <rect class="cls-1" x="2.42" y="22.74" width="11.69" height="11.69" transform="translate(-17.79 14.22) rotate(-45)"/>
          <polygon class="cls-1" points="112.67 28.57 101.54 37.03 40.92 28.57 101.54 20.12 112.67 28.57"/>
          <polygon class="cls-1" points="350 28.57 338.85 37.03 237.6 28.57 338.85 20.12 350 28.57"/>
          <circle class="cls-1" cx="147.45" cy="28.58" r="8.45"/>
          <path class="cls-1" d="M150.34,3.18c-3.8,0-7.4.83-10.63,2.33,1.5-.31,3.07-.46,4.66-.46,12.99,0,23.53,10.53,23.53,23.53s-10.53,23.53-23.53,23.53c-1.6,0-3.15-.16-4.66-.46,3.23,1.5,6.83,2.33,10.63,2.33,14.02,0,25.39-11.36,25.39-25.39s-11.36-25.42-25.39-25.42Z"/>
          <path class="cls-1" d="M264.37,30.57h0c-.88,0-32.35-.02-93.54,0-1.11,0-2.02-.9-2.02-2.02s.9-2.02,2.02-2.02h93.55c1.11.02,2.01.91,2.01,2.04-.02,1.11-.93,2.01-2.02,2.01Z"/>
          <path class="cls-1" d="M103.84,30.57c-1.11,0-2.02-.9-2.02-2.02s.9-2.02,2.02-2.02h45.88c1.11,0,2.02.9,2.02,2.02s-.9,2.02-2.02,2.02h-45.88Z"/>
          <path class="cls-1" d="M250.02,30.34c-.82,0-1.58-.49-1.89-1.3l-5.12-13.48h-47.46c-4.29,0-7.78-3.49-7.78-7.78s3.49-7.78,7.78-7.78h6.36c1.11,0,2.02.9,2.02,2.02s-.9,2.02-2.02,2.02h-6.36c-2.07,0-3.75,1.68-3.75,3.75s1.68,3.75,3.75,3.75h50.23l6.11,16.09c.39,1.04-.13,2.2-1.17,2.61-.21.07-.46.1-.7.1Z"/>
          <path class="cls-1" d="M247.3,23.15h-45.15c-1.11,0-2.02-.9-2.02-2.02s.9-2.02,2.02-2.02h45.15c1.11,0,2.02.9,2.02,2.02s-.91,2.02-2.02,2.02Z"/>
          <path class="cls-1" d="M201.92,56.66h-6.36c-4.29,0-7.78-3.49-7.78-7.78s3.49-7.78,7.78-7.78h47.46l5.12-13.48c.39-1.04,1.57-1.57,2.61-1.17,1.04.39,1.57,1.57,1.17,2.61l-6.11,16.09h-50.23c-2.07,0-3.75,1.68-3.75,3.75s1.68,3.75,3.75,3.75h6.36c1.11,0,2.02.9,2.02,2.02-.03,1.08-.93,1.99-2.04,1.99Z"/>
          <path class="cls-1" d="M247.3,37.53h-45.15c-1.11,0-2.02-.9-2.02-2.02s.9-2.02,2.02-2.02h45.15c1.11,0,2.02.9,2.02,2.02s-.91,2.02-2.02,2.02Z"/>
        </g>
      </g>
      <g id="_レイヤー_1-2-2" data-name=" レイヤー 1-2">
        <g>
          <rect class="cls-1" x="1720.74" y="20.18" width="15.8" height="15.8" transform="translate(2970.8344 -1174.4041) rotate(135)"/>
          <rect class="cls-1" x="1742.89" y="22.23" width="11.69" height="11.69" transform="translate(3005.1275 -1188.614) rotate(135)"/>
          <polygon class="cls-1" points="1644.33 28.09 1655.46 19.63 1716.08 28.09 1655.46 36.54 1644.33 28.09"/>
          <polygon class="cls-1" points="1407 28.09 1418.15 19.63 1519.4 28.09 1418.15 36.54 1407 28.09"/>
          <circle class="cls-1" cx="1609.55" cy="28.08" r="8.45"/>
          <path class="cls-1" d="M1606.66,53.48c3.8,0,7.4-.83,10.63-2.33-1.5.31-3.07.46-4.66.46-12.99,0-23.53-10.53-23.53-23.53s10.53-23.53,23.53-23.53c1.6,0,3.15.16,4.66.46-3.23-1.5-6.83-2.33-10.63-2.33-14.02,0-25.39,11.36-25.39,25.39s11.36,25.42,25.39,25.42Z"/>
          <path class="cls-1" d="M1492.63,26.09h0c.88,0,32.35.02,93.54,0,1.11,0,2.02.9,2.02,2.02s-.9,2.02-2.02,2.02h-93.55c-1.11-.02-2.01-.91-2.01-2.04.02-1.11.93-2.01,2.02-2.01Z"/>
          <path class="cls-1" d="M1653.16,26.09c1.11,0,2.02.9,2.02,2.02s-.9,2.02-2.02,2.02h-45.88c-1.11,0-2.02-.9-2.02-2.02s.9-2.02,2.02-2.02h45.88Z"/>
          <path class="cls-1" d="M1506.98,26.32c.82,0,1.58.49,1.89,1.3l5.12,13.48h47.46c4.29,0,7.78,3.49,7.78,7.78s-3.49,7.78-7.78,7.78h-6.36c-1.11,0-2.02-.9-2.02-2.02s.9-2.02,2.02-2.02h6.36c2.07,0,3.75-1.68,3.75-3.75s-1.68-3.75-3.75-3.75h-50.23l-6.11-16.09c-.39-1.04.13-2.2,1.17-2.61.21-.07.46-.1.7-.1Z"/>
          <path class="cls-1" d="M1509.7,33.51h45.15c1.11,0,2.02.9,2.02,2.02s-.9,2.02-2.02,2.02h-45.15c-1.11,0-2.02-.9-2.02-2.02s.91-2.02,2.02-2.02Z"/>
          <path class="cls-1" d="M1555.08,0h6.36C1565.72,0,1569.21,3.49,1569.21,7.78s-3.49,7.78-7.78,7.78h-47.46l-5.12,13.48c-.39,1.04-1.57,1.57-2.61,1.17-1.04-.39-1.57-1.57-1.17-2.61l6.11-16.09h50.23c2.07,0,3.75-1.68,3.75-3.75s-1.68-3.75-3.75-3.75h-6.36c-1.11,0-2.02-.9-2.02-2.02C1553.07.91,1553.97,0,1555.08,0Z"/>
          <path class="cls-1" d="M1509.7,19.13h45.15c1.11,0,2.02.9,2.02,2.02s-.9,2.02-2.02,2.02h-45.15c-1.11,0-2.02-.9-2.02-2.02s.91-2.02,2.02-2.02Z"/>
        </g>
      </g>
    </g>
  </g>
</svg>