<?xml version="1.0" encoding="UTF-8"?>
<svg id="_レイヤー_1" xmlns="http://www.w3.org/2000/svg" xmlns:xlink="http://www.w3.org/1999/xlink" version="1.1" viewBox="0 0 190.3 190.4">
  <!-- Generator: Adobe Illustrator 30.8.1, SVG Export Plug-In . SVG Version: 2.1.4 Build 1)  -->
  <defs>
    <style>
      .st0 {
        fill: url(#_名称未設定グラデーション_2);
      }

      .st1 {
        fill: url(#_名称未設定グラデーション);
      }
    </style>
    <radialGradient id="_名称未設定グラデーション" data-name="名称未設定グラデーション" cx="95.2" cy="2063.2" fx="95.2" fy="2063.2" r="123.5" gradientTransform="translate(0 -1968)" gradientUnits="userSpaceOnUse">
      <stop offset="0" stop-color="#bf9000"/>
      <stop offset="1" stop-color="#3f2800"/>
    </radialGradient>
    <radialGradient id="_名称未設定グラデーション_2" data-name="名称未設定グラデーション 2" cx="95.1" cy="2063.2" fx="95.1" fy="2063.2" r="131.1" gradientTransform="translate(0 -1968)" gradientUnits="userSpaceOnUse">
      <stop offset="0" stop-color="#bf9000"/>
      <stop offset="1" stop-color="#3f2800"/>
    </radialGradient>
  </defs>
  <g id="blacksmith_x5F_slot">
    <g>
      <path class="st1" d="M55.3,5.5h129.5v129.4h-.9V6.4H55.3v-.9ZM134.9,184.9H5.5V55.5h.9v128.4h128.5v.9h0Z"/>
      <path class="st0" d="M5.9,28.3v26.6h-3.5v-26.6h3.4M54.7,5.9h-26.6v-3.4h26.6v3.5h0ZM9.6,10.1v17.3h-3.5V7.1l3.5,3.1h0ZM10.5,9.5c-1.2-1.2-2.7-2.2-3.8-3.3h20.5v3.3H10.5ZM13,10.8c-.6-.2-1.2-.4-1.8-.6h16.7v-3.4h1.3c.6.3,1.3.6,1.9,1.1,1,.8,1.6,2.1,2.7,2.7.5.3,1.1.3,1.4-.3.3-.5,0-1.1-.2-1.5-.6-1-1.4-1.7-2.4-2.1h.2c1.4,0,2.9,0,4.3,0,1,.4,2.1,1,2.8,1.8.4.5.6,1.1.9,1.6.3.5.9.9,1.5.5,1.5-.9,0-2.6-.9-3.3-.4-.3-.9-.6-1.4-.8h1.3c1.1.4,2.2,1,3.1,1.7.7.6,1.3,1.2,1.7,2,.4.7.5,1.7,1.3,2.1.6.3,1.3.2,1.6-.4.3-.6,0-1.3,0-1.9-.5-1.5-1.6-2.7-3-3.4,0,0-.3,0-.4-.2h9.8V1.8h-27.9v3.7h-.2c-.1,0-.2,0-.4-.2-.4-.2-.8-.5-1.2-.8-.3-.3-.5-.6-.8-1-.3-.3-.6-.6-1.1-.6-1,0-1.3,1.1-.8,1.8.2.2.4.4.7.6h-.5c-.7-.2-1.3-.5-1.8-1-.5-.4-.8-.9-1-1.5-.2-.5-.6-1.1-1.2-1.1s-1.2.4-1.4.9c-.2.6,0,1.3.4,1.9.1.2.3.3.5.5-.3,0-.6-.3-.8-.4-.7-.4-1.3-.9-1.9-1.5-.5-.5-.9-1.2-1.2-1.9C14.5.5,13.9-.1,13.1,0c-.7.1-1.1.9-1,1.6.1.8.6,1.5,1.1,2,.7.8,1.7,1.5,2.8,1.9-3.4,0-7,0-10.4,0v10.6c-.4-1.1-1.1-2.1-1.9-2.8-.6-.5-1.3-1-2-1.1-.7,0-1.4.3-1.6,1C0,14,.6,14.6,1.3,14.9c.7.3,1.3.7,1.9,1.2.6.5,1.1,1.2,1.4,1.9,0,.3.3.5.4.8-.2-.2-.3-.3-.5-.5-.5-.4-1.2-.6-1.9-.4-.6.2-1,.8-.9,1.4,0,.6.6,1,1.1,1.2.6.3,1.1.6,1.5,1s.8,1.1,1,1.8,0,.3,0,.5c-.2-.3-.4-.5-.6-.7-.7-.5-1.8-.1-1.8.8s.3.8.7,1.1c.3.3.7.5.9.8.3.4.6.7.8,1.2,0,.1,0,.2.2.4v.2H1.8v27.9h4.8v-9.8c0,0,0,.3.2.4.7,1.3,1.9,2.5,3.4,3,.6.2,1.4.4,1.9,0,.6-.3.7-1.1.4-1.6-.4-.8-1.4-.9-2.1-1.3-.8-.4-1.5-1-2-1.7-.7-.9-1.3-2-1.7-3.1v-1.3c.2.5.5,1,.8,1.4.6.9,2.4,2.4,3.3.9.4-.6,0-1.2-.5-1.5-.6-.3-1.1-.5-1.6-.9-.9-.8-1.4-1.8-1.8-2.8,0-1.4,0-2.9,0-4.3v-.2c.4,1,1,1.9,2.1,2.4.4.2,1,.5,1.5.2.6-.3.6-.9.3-1.4-.6-1.1-2-1.7-2.7-2.7-.4-.6-.7-1.3-1.1-1.9h0v-1.3h3.4V11.3h0c.2.7.4,1.3.6,1.9.3,1,.5,2,.6,3.1.1,1.1.1,2.1,0,3.1,0,.9-.4,1.8-.3,2.7,0,.6.4,1.1,1.1,1.1s1.1-.7,1.2-1.4c.3-1.8.2-3.7-.2-5.5s-.5-1.8-.9-2.6c.4.4.8.9,1.2,1.3l.2.2c.2.4.4.8.6,1.3.7,1.8,1.1,3.8.7,5.6,0,.3.1.7.5.7,2-.1,1.9-2.5,1.6-4l.8.8.9.9c0,.2,0,.4.1.6v1.4c0,.5.2,1,.8,1.1.9.2,1.1-.7,1.1-1.5.4.2,3.5,2.1,1.3-1.5.8,0,1.6-.2,1.4-1.1-.1-.5-.6-.8-1.1-.8h-1.4c-.2,0-.4,0-.6-.1l-.7-.7c-.3-.3-.7-.6-1-1,1.5.3,3.9.5,4-1.6,0-.4-.4-.6-.7-.5-1.9.4-3.9,0-5.6-.7-.5-.2-.9-.4-1.3-.6-.5-.5-1-.9-1.5-1.4.8.4,1.7.7,2.6.9,1.8.4,3.7.6,5.5.2.6-.1,1.3-.5,1.4-1.2,0-.6-.5-1-1.1-1.1-.9,0-1.8.2-2.7.3h-3.1c-1-.1-2.1-.3-3.1-.6h0l-.4.2ZM184.4,162.1v-26.6h3.4v26.6h-3.4M135.6,184.6h26.6v3.4h-26.6v-3.4ZM180.7,180.4v-17.3h3.5v20.4l-3.5-3.1h0ZM179.8,180.9c1.2,1.2,2.7,2.2,3.8,3.3h-20.5v-3.3h16.7ZM177.3,179.6c.6.2,1.2.4,1.8.6h-16.7v3.4h-1.3c-.6-.3-1.3-.6-1.9-1.1-1-.8-1.6-2.1-2.7-2.7-.5-.3-1.1-.3-1.4.3-.3.5,0,1.1.2,1.5.6,1,1.4,1.7,2.4,2.1h-.2c-1.4,0-2.9,0-4.3.1-1.1-.4-2.1-1-2.8-1.9-.4-.5-.6-1.1-.9-1.6-.3-.5-.9-.9-1.5-.5-1.5.9,0,2.6.9,3.3.4.3.9.6,1.4.8h-1.3c-1.1-.4-2.2-1-3.1-1.7-.7-.6-1.3-1.2-1.7-2-.4-.7-.5-1.7-1.3-2.1-.6-.3-1.3-.2-1.6.4-.3.6-.1,1.3,0,1.9.5,1.5,1.6,2.7,3,3.4.1,0,.3.1.4.2h-9.8v4.8h27.9v-3.7h.2c.1,0,.2.1.4.2.4.2.8.5,1.2.8.3.3.6.6.8.9.3.4.6.6,1.1.6,1,0,1.3-1.1.8-1.8-.2-.2-.4-.4-.7-.6h.5c.7.2,1.3.5,1.8,1,.5.4.8.9,1,1.5.2.5.6,1.1,1.2,1.1s1.2-.4,1.4-.9c.2-.6,0-1.4-.4-1.9-.1-.2-.3-.4-.5-.5.3.1.6.3.8.4.7.4,1.3.9,1.9,1.4.5.6.9,1.2,1.2,1.9s.9,1.3,1.7,1.2c.7-.1,1.1-.9,1-1.6-.1-.8-.6-1.5-1.1-2-.7-.8-1.7-1.5-2.8-1.9,3.4,0,7,.1,10.4,0v-10.6c.4,1.1,1.1,2.1,1.9,2.8.6.5,1.3,1,2,1.1.7,0,1.4-.3,1.6-1,.1-.8-.5-1.4-1.2-1.7s-1.3-.7-1.9-1.2c-.6-.5-1.1-1.2-1.4-1.9-.1-.3-.3-.6-.4-.8l.5.5c.5.4,1.2.6,1.9.4.6-.2,1-.8.9-1.4s-.6-1-1.1-1.2c-.6-.3-1.1-.6-1.5-1s-.8-1.1-1-1.8v-.5c.2.3.4.5.6.7.7.5,1.8.1,1.8-.8s-.3-.8-.6-1.1-.7-.5-.9-.8c-.3-.4-.6-.7-.8-1.2,0-.1-.1-.2-.2-.4v-.2h3.7v-27.9h-4.8v9.8c0-.1-.1-.3-.2-.4-.7-1.3-1.9-2.5-3.4-3-.6-.2-1.4-.4-1.9,0-.6.3-.7,1.1-.4,1.6.4.8,1.4.9,2.1,1.3.8.4,1.5,1,2,1.7.7.9,1.3,2,1.7,3.1v1.3c-.2-.5-.5-1-.8-1.4-.6-.9-2.4-2.4-3.3-.9-.4.6,0,1.2.5,1.5.6.3,1.1.5,1.6.9.9.8,1.4,1.8,1.9,2.8,0,1.4,0,2.9-.1,4.3v.2c-.4-1-1-1.9-2.1-2.4-.4-.2-1-.5-1.5-.2-.6.3-.6.9-.3,1.4.6,1.1,2,1.7,2.7,2.7.4.6.7,1.3,1.1,1.9h0v1.3h-3.4v16.8h0c-.2-.7-.4-1.3-.6-1.9-.3-1-.5-2-.6-3.1s-.1-2.1,0-3.1c0-.9.4-1.8.3-2.7,0-.6-.4-1.1-1.1-1.1s-1.1.7-1.2,1.4c-.3,1.8-.2,3.7.2,5.5.2.9.5,1.8.9,2.6-.4-.4-.8-.9-1.2-1.3l-.2-.2c-.2-.4-.4-.8-.6-1.3-.7-1.8-1.1-3.8-.7-5.6,0-.3-.1-.7-.5-.7-2,.1-1.9,2.4-1.6,4l-.8-.8-.9-.9c0-.2,0-.4-.1-.6v-1.4c0-.5-.2-1-.8-1.1-.9-.2-1.1.7-1.1,1.4-.4-.2-3.5-2.1-1.3,1.4-.8,0-1.6.2-1.4,1.1.1.5.6.8,1.1.8h1.4c.2,0,.4,0,.6.1.2.2.5.4.7.7.3.3.7.6,1,1-1.5-.3-3.9-.4-4,1.6,0,.4.4.6.7.5,1.9-.4,3.9,0,5.6.7.5.2.9.4,1.3.6.5.5,1,.9,1.5,1.4-.8-.4-1.7-.7-2.6-.9-1.8-.4-3.7-.6-5.5-.2-.6.1-1.3.5-1.4,1.2,0,.6.5,1,1.1,1.1.9,0,1.8-.2,2.7-.3h3.1c1,0,2.1.3,3.1.6h.2Z"/>
    </g>
  </g>
</svg>